External Loads File
version=1
nRows=77
nColumns=13
Range=5.000000e-03-10 seconds
endheader
time 	forceRightX 	forceRightY 	forceRightZ 	pointRightX 	pointRightY 	pointRightZ 	forceLeftX 	forceLeftY 	forceLeftZ 	pointLeftX 	pointLeftY 	pointLeftZ 		
7.505000 -17.348869 -76.982308 -0.000000 0.164071 0.425357 -0.110916 11.926176 702.118324 -0.000000 0.376783 0.203706 -0.359024
7.510000 -28.062205 -77.750067 -0.000000 0.170998 0.433887 -0.111430 34.972123 690.761001 -0.000000 0.370536 0.195341 -0.358946
7.515000 -38.226392 -76.561713 -0.000000 0.177783 0.441889 -0.111887 55.915876 676.567678 -0.000000 0.363783 0.187453 -0.358893
7.520000 -47.906000 -72.872508 -0.000000 0.185354 0.449655 -0.112120 76.894334 659.254688 -0.000000 0.356581 0.179987 -0.358855
7.525000 -56.756080 -66.403099 -0.000000 0.193285 0.456677 -0.112184 96.573118 638.729656 -0.000000 0.348991 0.173058 -0.358852
7.530000 -64.413600 -57.109371 -0.000000 0.201336 0.462784 -0.112422 113.619673 615.132061 -0.000000 0.341593 0.166756 -0.361035
7.535000 -71.008280 -44.501946 -0.000000 0.209781 0.468542 -0.112377 132.682956 587.665420 -0.000000 0.332336 0.161129 -0.358903
7.540000 -75.803646 -29.184316 -0.000000 0.218508 0.473634 -0.112325 149.609202 557.415841 -0.000000 0.323416 0.155983 -0.359124
7.545000 -78.567757 -11.398634 -0.000000 0.227251 0.478256 -0.112304 165.081107 524.865982 -0.000000 0.314133 0.151595 -0.359165
7.550000 -79.072168 8.538240 -0.000000 0.236149 0.482205 -0.112167 179.135458 490.657854 -0.000000 0.304498 0.147961 -0.359103
7.555000 -77.230599 30.196527 -0.000000 0.244657 0.485666 -0.112129 190.717016 455.745661 -0.000000 0.294694 0.145006 -0.359084
7.560000 -73.129292 53.482197 -0.000000 0.253182 0.488479 -0.112214 200.112852 420.398690 -0.000000 0.284833 0.142594 -0.358978
7.565000 -67.132771 78.322219 -0.000000 0.261474 0.490830 -0.112157 206.702623 384.962620 -0.000000 0.275099 0.140789 -0.358766
7.570000 -59.859295 104.897481 -0.000000 0.269298 0.492452 -0.112023 210.303386 349.364591 -0.000000 0.265503 0.139745 -0.358626
7.575000 -51.850955 133.662229 -0.000000 0.276983 0.493365 -0.111851 211.639226 312.796083 -0.000000 0.255880 0.139302 -0.358593
7.580000 -43.908151 164.921273 -0.000000 0.284598 0.493104 -0.111620 210.677942 274.778269 -0.000000 0.246563 0.139571 -0.358107
7.585000 -36.894321 198.817972 -0.000000 0.291859 0.492520 -0.110999 207.462717 234.895798 -0.000000 0.237354 0.140620 -0.357488
7.590000 -31.675464 235.156830 -0.000000 0.298835 0.491007 -0.110235 202.012756 192.992663 -0.000000 0.228427 0.142160 -0.357233
7.595000 -28.918418 273.314086 -0.000000 0.305698 0.488731 -0.109459 194.416932 149.153833 -0.000000 0.219819 0.144363 -0.357187
7.600000 -29.100535 312.225384 -0.000000 0.312634 0.485629 -0.108699 184.706174 103.847328 -0.000000 0.211622 0.147164 -0.356802
7.605000 -32.091802 350.528911 -0.000000 0.320023 0.481809 -0.108240 172.963900 57.721641 -0.000000 0.203763 0.150510 -0.356547
7.610000 -38.364404 386.633996 -0.000000 0.327180 0.477232 -0.107722 159.103669 12.207329 -0.000000 0.196214 0.154448 -0.356373
7.615000 -47.405438 419.090820 -0.000000 0.334366 0.472000 -0.107275 143.358961 -31.434791 -0.000000 0.188988 0.158923 -0.356209
7.620000 -58.787448 446.717725 -0.000000 0.341561 0.466080 -0.107056 126.031372 -71.636851 -0.000000 0.182181 0.163950 -0.356056
7.625000 -72.067659 468.763332 -0.000000 0.348665 0.459618 -0.106853 107.621529 -106.825905 -0.000000 0.175700 0.169422 -0.355829
7.630000 -86.759648 484.958849 -0.000000 0.355491 0.452651 -0.106460 88.838865 -135.684906 -0.000000 0.169568 0.175529 -0.355699
7.635000 -101.706261 495.624976 -0.000000 0.362601 0.445253 -0.106861 70.328527 -157.415896 -0.000000 0.163711 0.181988 -0.355519
7.640000 -117.003286 501.281003 -0.000000 0.369248 0.437365 -0.106799 53.140276 -171.468466 -0.000000 0.158129 0.188996 -0.355352
7.645000 -131.784724 503.004064 -0.000000 0.375633 0.428950 -0.106829 37.995955 -177.925749 -0.000000 0.152846 0.196569 -0.355068
7.650000 -145.783428 502.013018 -0.000000 0.381832 0.420169 -0.106688 25.653846 -177.262786 -0.000000 0.147807 0.204521 -0.354921
7.655000 -158.619577 499.669379 -0.000000 0.387620 0.410825 -0.106972 16.583553 -170.401398 -0.000000 0.143141 0.212914 -0.354840
7.660000 -170.271495 497.179474 -0.000000 0.392889 0.401289 -0.107032 11.081906 -158.577372 -0.000000 0.138768 0.221754 -0.354984
7.665000 -180.624486 495.610142 -0.000000 0.397576 0.391535 -0.106944 9.100820 -143.202699 -0.000000 0.134834 0.230929 -0.354913
7.670000 -189.091768 496.027994 -0.000000 0.401484 0.381370 -0.106915 10.189489 -125.691502 -0.000000 0.131351 0.240516 -0.354948
7.675000 -195.446509 499.201158 -0.000000 0.405153 0.371035 -0.106904 13.826172 -107.329495 -0.000000 0.128355 0.250436 -0.354767
7.680000 -199.942118 505.472425 -0.000000 0.408038 0.360524 -0.106914 19.442986 -89.187617 -0.000000 0.125887 0.260620 -0.354748
7.685000 -201.961980 515.252435 -0.000000 0.410399 0.349746 -0.106860 26.237579 -72.107647 -0.000000 0.123991 0.271056 -0.354646
7.690000 -201.536343 528.422711 -0.000000 0.412037 0.338842 -0.106882 33.595928 -56.673323 -0.000000 0.122668 0.281692 -0.354550
7.695000 -198.548574 544.676005 -0.000000 0.413102 0.327942 -0.106846 40.970919 -43.305246 -0.000000 0.121918 0.292487 -0.354432
7.700000 -192.508476 563.656048 -0.000000 0.413621 0.316948 -0.107100 47.883046 -32.362815 -0.000000 0.121717 0.303462 -0.354320
7.705000 -183.529797 584.674137 -0.000000 0.413231 0.305927 -0.107128 53.956590 -24.098172 -0.000000 0.122050 0.314512 -0.354244
7.710000 -171.714394 606.994181 -0.000000 0.412363 0.295009 -0.107306 58.823494 -18.651460 -0.000000 0.122965 0.325621 -0.354016
7.715000 -156.673705 629.965229 -0.000000 0.410744 0.284151 -0.106985 62.130889 -16.035432 -0.000000 0.124440 0.336864 -0.353770
7.720000 -138.191073 652.808559 -0.000000 0.408302 0.273440 -0.107046 63.586203 -16.055836 -0.000000 0.126554 0.348333 -0.353555
7.725000 -118.329116 674.297558 -0.000000 0.405343 0.262911 -0.106362 63.024584 -18.135214 -0.000000 0.129295 0.359196 -0.353300
7.730000 -96.066633 693.969620 -0.000000 0.401638 0.252618 -0.106876 60.336329 -21.883720 -0.000000 0.132662 0.369992 -0.353099
7.735000 -72.042169 711.124263 -0.000000 0.397476 0.242553 -0.106799 55.617170 -26.688631 -0.000000 0.136738 0.380617 -0.352723
7.740000 -46.519968 725.261292 -0.000000 0.392751 0.232871 -0.106725 49.091234 -31.961714 -0.000000 0.141212 0.391404 -0.353032
7.745000 -21.384072 735.936893 -0.000000 0.387519 0.223496 -0.106777 41.147007 -37.035243 -0.000000 0.146576 0.401264 -0.352695
7.750000 3.816453 743.000344 -0.000000 0.381805 0.214476 -0.106693 32.111050 -41.436437 -0.000000 0.152331 0.410921 -0.351572
7.755000 27.990130 746.277192 -0.000000 0.375594 0.205860 -0.106503 22.390419 -44.616323 -0.000000 0.158296 0.420124 -0.351467
7.760000 52.115511 745.494279 -0.000000 0.368965 0.197658 -0.106379 12.275682 -46.085188 -0.000000 0.165022 0.429049 -0.351419
7.765000 75.069626 740.338156 -0.000000 0.361920 0.189880 -0.106275 2.178807 -45.241552 -0.000000 0.172147 0.437395 -0.350909
7.770000 96.314436 730.457372 -0.000000 0.354511 0.182711 -0.106112 -7.530489 -41.510880 -0.000000 0.179587 0.445058 -0.350888
7.775000 116.263892 715.384915 -0.000000 0.346722 0.176069 -0.105975 -16.538845 -34.364485 -0.000000 0.187478 0.451915 -0.351145
7.780000 134.880155 694.784694 -0.000000 0.338550 0.169918 -0.105755 -24.461489 -23.401900 -0.000000 0.195542 0.458321 -0.351243
7.785000 151.846325 668.606322 -0.000000 0.330164 0.164392 -0.105596 -30.851485 -8.447878 -0.000000 0.203995 0.463998 -0.351559
7.790000 166.675710 637.186238 -0.000000 0.321510 0.159512 -0.105468 -35.270771 10.429209 -0.000000 0.212481 0.468999 -0.352078
7.795000 179.598478 601.058707 -0.000000 0.312542 0.155392 -0.105239 -37.351829 32.998946 -0.000000 0.221199 0.472934 -0.352659
7.800000 190.602131 561.112759 -0.000000 0.303317 0.151788 -0.105100 -36.836333 58.878172 -0.000000 0.229770 0.476962 -0.353310
7.805000 199.489881 518.465222 -0.000000 0.293789 0.148885 -0.104945 -33.688825 87.602903 -0.000000 0.238240 0.480563 -0.354002
7.810000 205.370888 474.527591 -0.000000 0.284386 0.146659 -0.104953 -28.373577 118.686866 -0.000000 0.246300 0.483770 -0.354520
7.815000 209.118807 429.826910 -0.000000 0.274848 0.145062 -0.104922 -21.442048 151.832032 -0.000000 0.254054 0.486425 -0.354471
7.820000 211.024514 384.686426 -0.000000 0.265289 0.144017 -0.104800 -13.763428 186.724631 -0.000000 0.261630 0.488406 -0.354775
7.825000 211.153011 339.100903 -0.000000 0.255842 0.143677 -0.104799 -6.467748 222.961626 -0.000000 0.269022 0.489682 -0.355240
7.830000 209.854671 292.497319 -0.000000 0.246548 0.144056 -0.104822 -0.510469 259.962456 -0.000000 0.276484 0.490062 -0.355876
7.835000 206.805964 244.502805 -0.000000 0.237509 0.144988 -0.104565 2.858197 296.897735 -0.000000 0.283789 0.489548 -0.356807
7.840000 201.952077 194.583469 -0.000000 0.228730 0.146277 -0.104596 2.892007 332.722529 -0.000000 0.291161 0.488322 -0.357450
7.845000 194.976255 142.647226 -0.000000 0.220284 0.148558 -0.104947 -1.019009 366.260393 -0.000000 0.298505 0.486354 -0.358110
7.850000 185.632284 88.958358 -0.000000 0.212223 0.151432 -0.105407 -8.964113 396.358890 -0.000000 0.305980 0.483470 -0.358981
7.855000 173.666724 34.334497 -0.000000 0.204487 0.155023 -0.105712 -20.699100 422.049465 -0.000000 0.313587 0.479991 -0.359671
7.860000 158.921083 -19.843686 -0.000000 0.197148 0.159184 -0.105788 -35.793357 442.630827 -0.000000 0.321245 0.475680 -0.360142
7.865000 141.480848 -71.685308 -0.000000 0.190286 0.163892 -0.105795 -53.917911 457.680873 -0.000000 0.328891 0.470941 -0.360605
7.870000 121.698898 -119.198421 -0.000000 0.183871 0.168954 -0.105815 -74.338968 467.155382 -0.000000 0.336549 0.465500 -0.360977
7.875000 100.317972 -160.302467 -0.000000 0.177753 0.174498 -0.105843 -96.914827 471.362317 -0.000000 0.343929 0.459630 -0.361406
7.880000 78.125236 -193.442439 -0.000000 0.172008 0.180461 -0.105851 -121.009608 471.230944 -0.000000 0.351456 0.453123 -0.361500
7.885000 56.319893 -217.458454 -0.000000 0.166472 0.186865 -0.105923 -146.798944 468.070562 -0.000000 0.358742 0.445993 -0.361551
